<?xml version="1.0" standalone="no"?>
<!DOCTYPE svg PUBLIC "-//W3C//DTD SVG 20010904//EN"
 "http://www.w3.org/TR/2001/REC-SVG-20010904/DTD/svg10.dtd">
<svg version="1.0" xmlns="http://www.w3.org/2000/svg"
 width="512.000000pt" height="512.000000pt" viewBox="0 0 512.000000 512.000000"
 preserveAspectRatio="xMidYMid meet">

<g transform="translate(0.000000,512.000000) scale(0.100000,-0.100000)"
fill="#000000" stroke="none">
<path d="M1739 4496 c-25 -7 -58 -21 -75 -33 -58 -42 -254 -250 -269 -286 -19
-47 -19 -127 0 -175 11 -26 226 -247 710 -732 382 -382 695 -700 695 -705 0
-5 -313 -322 -695 -705 -483 -484 -699 -706 -710 -732 -19 -48 -19 -128 0
-175 19 -45 234 -265 294 -300 57 -34 138 -36 196 -6 59 32 1810 1787 1830
1835 19 48 19 118 0 166 -19 45 -1771 1804 -1825 1831 -49 25 -97 31 -151 17z"/>
</g>
</svg>
