<?xml version="1.0" standalone="no"?>
<!DOCTYPE svg PUBLIC "-//W3C//DTD SVG 20010904//EN"
 "http://www.w3.org/TR/2001/REC-SVG-20010904/DTD/svg10.dtd">
<svg version="1.0" xmlns="http://www.w3.org/2000/svg"
 width="536.000000pt" height="168.000000pt" viewBox="0 0 536.000000 168.000000"
 preserveAspectRatio="xMidYMid meet">

<g transform="translate(0.000000,168.000000) scale(0.100000,-0.100000)"
fill="#000000" stroke="none">
<path d="M4328 1660 c-188 -47 -374 -171 -484 -326 -207 -290 -207 -688 0
-979 118 -165 337 -306 520 -335 134 -21 326 -10 423 24 231 82 420 259 513
482 44 105 60 190 60 319 0 393 -260 723 -643 815 -109 26 -281 26 -389 0z
m355 -96 c40 -9 113 -35 162 -59 164 -80 260 -176 340 -340 98 -202 101 -429
7 -627 -83 -176 -209 -301 -370 -367 -321 -133 -684 -40 -880 224 -170 228
-199 520 -77 770 78 160 195 275 357 349 136 63 314 83 461 50z"/>
<path d="M4258 1043 c-115 -115 -178 -185 -178 -198 0 -25 347 -375 372 -375
23 0 48 27 48 53 0 15 -38 60 -115 137 -63 63 -115 118 -115 122 0 5 149 8
330 8 317 0 331 1 350 20 26 26 25 36 -5 65 l-24 25 -326 0 c-179 0 -325 3
-325 8 0 4 52 59 115 122 77 77 115 122 115 137 0 21 -33 53 -54 53 -5 0 -90
-80 -188 -177z"/>
<path d="M0 845 l0 -345 75 0 75 0 0 145 0 145 165 0 165 0 0 -145 0 -145 75
0 75 0 0 345 0 345 -75 0 -75 0 0 -135 0 -135 -165 0 -165 0 0 135 0 135 -75
0 -75 0 0 -345z"/>
<path d="M892 1025 c-29 -8 -66 -22 -83 -30 l-30 -16 27 -48 28 -48 40 18 c47
21 151 25 189 8 25 -11 40 -34 52 -75 5 -21 2 -22 -112 -26 -102 -3 -125 -7
-163 -29 -101 -55 -105 -180 -9 -251 65 -48 202 -41 265 14 l34 30 0 -36 0
-36 65 0 65 0 0 185 c0 198 -7 234 -53 283 -59 63 -202 89 -315 57z m228 -328
c0 -18 -7 -43 -16 -55 -64 -91 -239 -52 -193 44 17 34 41 42 137 43 l72 1 0
-33z"/>
<path d="M1495 1036 c-5 -2 -36 -12 -67 -22 -32 -9 -58 -20 -58 -24 0 -7 30
-82 35 -88 1 -1 28 4 61 13 110 29 199 15 210 -32 12 -44 -19 -63 -103 -63
l-73 0 0 -45 0 -45 68 0 c85 0 116 -15 120 -57 7 -74 -120 -91 -283 -39 -17 6
-23 -1 -37 -40 -9 -26 -15 -51 -13 -54 3 -4 33 -16 67 -26 94 -27 237 -25 306
5 74 33 112 79 112 137 0 39 -5 51 -32 78 -18 18 -39 35 -47 38 -11 3 -3 15
25 40 34 32 39 42 39 81 0 88 -79 138 -225 143 -52 2 -99 2 -105 0z"/>
<path d="M2085 1034 c-61 -16 -115 -37 -125 -49 -8 -10 -5 -24 11 -58 l22 -45
41 19 c51 23 155 25 195 4 24 -12 51 -57 51 -85 0 -4 -51 -10 -112 -12 -180
-6 -243 -46 -243 -154 0 -83 50 -136 143 -154 66 -12 142 3 181 36 37 31 41
30 41 -6 l0 -30 65 0 65 0 -1 188 c0 117 -5 199 -12 220 -16 43 -63 91 -107
110 -35 15 -178 25 -215 16z m195 -338 c0 -66 -65 -113 -142 -103 -51 7 -71
27 -70 67 1 58 19 66 140 69 l72 1 0 -34z"/>
<path d="M2625 1018 c-2 -7 -6 -74 -8 -148 -3 -74 -11 -151 -17 -170 -14 -41
-53 -80 -81 -80 -18 0 -19 -8 -19 -115 l0 -115 70 0 70 0 0 55 0 55 195 0 195
0 0 -55 0 -55 65 0 65 0 0 115 0 115 -35 0 -35 0 0 205 0 205 -230 0 c-176 0
-232 -3 -235 -12z m315 -253 l0 -145 -115 0 c-63 0 -115 2 -115 4 0 2 7 21 16
42 10 23 19 81 22 142 l5 102 93 0 94 0 0 -145z"/>
</g>
</svg>
